<?xml version="1.0" encoding="UTF-8"?>
<svg xmlns="http://www.w3.org/2000/svg" viewBox="0 0 1600 1200">
  <path d="m1303.92,0s-39.92,168.58-78.92,200.62-123-32.04-221-15.33-121,267.49-204,264.68c-83-2.81-115-278.62-155-289.76-40-11.15-54,86.38-135,78.02-81-8.36-90,182.51-213,171.36C174,398.45,118,224.3,0,227.69v523.91c76-104.26,225-113.32,308-92.62s100,262.75,202,282.16,153-135.9,281-55.66,185,249.8,294,249.8,224-133.31,279-284.75c55-151.43,135-207.09,178-186.38s58,228.49,58,228.49V0h-296.08Z" stroke-width="0"/>
</svg>