<?xml version="1.0" encoding="UTF-8"?><svg id="Layer_1" xmlns="http://www.w3.org/2000/svg" xmlns:xlink="http://www.w3.org/1999/xlink" viewBox="0 0 24 24"><defs><clipPath id="clippath"><rect x=".44" y="3.01" width="23.12" height="17.98" fill="none"/></clipPath></defs><g clip-path="url(#clippath)"><path d="M23.56,5.2c-.87,.37-1.78,.61-2.72,.71,.98-.56,1.73-1.45,2.09-2.5-.93,.53-1.95,.9-3.01,1.1-.87-.88-2.1-1.43-3.46-1.43-2.62,0-4.74,2.02-4.74,4.52,0,.35,.04,.7,.12,1.03-3.94-.19-7.44-1.99-9.78-4.72-.41,.67-.64,1.44-.64,2.27,0,1.57,.84,2.95,2.11,3.76-.75-.02-1.49-.22-2.15-.57,0,.02,0,.04,0,.06,0,2.19,1.64,4.02,3.81,4.43-.7,.18-1.43,.21-2.14,.08,.6,1.8,2.36,3.1,4.43,3.14-1.62,1.21-3.67,1.93-5.89,1.93-.38,0-.76-.02-1.13-.06,2.1,1.28,4.59,2.03,7.27,2.03,8.73,0,13.5-6.89,13.5-12.86,0-.2,0-.39-.01-.58,.93-.64,1.73-1.43,2.37-2.34Z" fill="#fff"/></g></svg>