<?xml version="1.0" encoding="utf-8"?>
<!-- Generator: Adobe Illustrator 27.1.1, SVG Export Plug-In . SVG Version: 6.00 Build 0)  -->
<svg version="1.1" id="Layer_1" xmlns="http://www.w3.org/2000/svg" xmlns:xlink="http://www.w3.org/1999/xlink" x="0px" y="0px"
	 viewBox="0 0 24 24" style="enable-background:new 0 0 24 24;" xml:space="preserve">
	<path fill="#F96F6D" d="M10.9,4.1c0.4-0.8,1.6-0.8,2,0l8.2,14.3c0.4,0.8-0.1,1.7-1,1.7H3.7c-0.9,0-1.4-1-1-1.7L10.9,4.1z"/>
	<path fill="#BEFDE0" d="M12.7,8.5l-0.4,4.7c0,0.2,0,0.3-0.1,0.3c-0.1,0.2-0.2,0.3-0.5,0.3c-0.2,0-0.3-0.1-0.4-0.2
		c-0.1-0.1-0.1-0.3-0.1-0.5L11,8.5c0-0.1,0.1-0.3,0.3-0.4c0.2-0.1,0.4-0.2,0.6-0.2c0.2,0,0.5,0,0.6,0.1C12.6,8.2,12.7,8.3,12.7,8.5z
		M12.7,17c0,0.1,0,0.2-0.1,0.2c-0.1,0.1-0.2,0.1-0.3,0.1h-0.8c-0.1,0-0.2,0-0.3-0.1c-0.1-0.1-0.2-0.2-0.2-0.3v-0.9
		c0-0.1,0-0.2,0.1-0.3c0.1-0.1,0.2-0.1,0.3-0.1h0.8c0.1,0,0.2,0,0.3,0.1c0.1,0.1,0.1,0.2,0.1,0.3V17z"/>
</svg>
