<?xml version="1.0" encoding="utf-8"?>
<!-- Generator: Adobe Illustrator 27.1.1, SVG Export Plug-In . SVG Version: 6.00 Build 0)  -->
<svg version="1.1" id="Layer_1" xmlns="http://www.w3.org/2000/svg" xmlns:xlink="http://www.w3.org/1999/xlink" x="0px" y="0px"
	 viewBox="0 0 64 64" style="enable-background:new 0 0 64 64;" xml:space="preserve">
<style type="text/css">
	.st0{fill:#1EE391;}
</style>
<g>
	<path class="st0" d="M35.2,38.9l-2.7,4.7c3.1,5.3,6.1,10.6,9.2,15.9c0.1,0.1,0.1,0.3,0.2,0.4H42l4-2.3L35.2,38.9z"/>
	<path class="st0" d="M18.1,57.5l3.9,2.3l20.5-35.4l-2.6-4.5L18.1,57.5z"/>
	<path class="st0" d="M56.6,46.9L56.6,46.9l4.1-2.3c-0.1-0.1-0.1-0.3-0.2-0.4L55.3,35c-3-5.2-6-10.3-9-15.5h-5.4
		c5.2,9,10.4,18,15.6,27C56.6,46.6,56.6,46.7,56.6,46.9z"/>
	<path class="st0" d="M3.1,44.9c-0.1,0.2-0.2,0.3-0.3,0.5v0.1l4,2.3h0.1c0.1-0.1,0.1-0.3,0.2-0.4c5.4-9.3,10.7-18.6,16.1-27.9h-5.4
		C12.9,28,8,36.4,3.1,44.9z"/>
	<path class="st0" d="M57.5,13.8h-51v4.6h51V13.8z"/>
	<path class="st0" d="M28.6,1.6l-4.1,2.4l5.2,9.1h5.5L28.6,1.6z"/>
	<path class="st0" d="M32,4.2c15.3,0,27.8,12.5,27.8,27.8S47.3,59.8,32,59.8C16.7,59.8,4.2,47.3,4.2,32S16.7,4.2,32,4.2z M32,0
		C14.3,0,0,14.3,0,32s14.3,32,32,32c17.7,0,32-14.3,32-32S49.7,0,32,0z"/>
</g>
</svg>
