<svg width="83" height="99" viewBox="0 0 83 99" fill="none" xmlns="http://www.w3.org/2000/svg">
<path d="M45.5824 50.3639L42.0809 56.4213C46.0622 63.3058 50.039 70.1915 54.0115 77.0786C54.109 77.2485 54.1774 77.4341 54.2591 77.6119H54.3592L59.5594 74.574L45.5824 50.3639Z" fill="white"/>
<path d="M23.3962 74.5147L28.4911 77.4565L55.0017 31.5396L51.6056 25.6573L23.3962 74.5147Z" fill="white"/>
<path d="M73.3808 60.6984H73.4809L78.6719 57.6697C78.5718 57.488 78.4875 57.3286 78.398 57.1733L71.5768 45.3599C67.7079 38.6607 63.8416 31.9606 59.978 25.2596H52.9738C59.7116 36.9242 66.4481 48.5901 73.1833 60.2573C73.2567 60.4008 73.3226 60.5481 73.3808 60.6984Z" fill="white"/>
<path d="M3.99661 58.1727C3.87282 58.3861 3.73324 58.5889 3.59497 58.7956V58.8957L8.80175 61.8994H8.90184C8.9848 61.7216 9.0559 61.5359 9.15335 61.3727C16.1045 49.3341 23.057 37.2964 30.0108 25.2596H22.9999C16.6686 36.2307 10.3341 47.2017 3.99661 58.1727Z" fill="white"/>
<path d="M74.4226 17.9314H8.40674V23.8677H74.4226V17.9314Z" fill="white"/>
<path d="M37.023 2.02266L31.6766 5.10538L38.4584 16.8516H45.5825L37.023 2.02266Z" fill="white"/>
<path d="M41.4541 5.42275C61.3213 5.42275 77.4842 21.5856 77.4842 41.4528C77.4842 61.32 61.3213 77.4908 41.4541 77.4908C21.587 77.4908 5.4188 61.32 5.4188 41.4528C5.4188 21.5856 21.587 5.42275 41.4541 5.42275ZM41.4541 0C18.5596 0 0 18.5582 0 41.4528C0 64.3474 18.5596 82.907 41.4541 82.907C64.3487 82.907 82.9069 64.3474 82.9069 41.4528C82.9069 18.5582 64.3474 0 41.4541 0Z" fill="white"/>
<path d="M8.92545 95.1259H7.7956V98.5866H4.68127V87.2789H9.58123C12.02 87.2789 13.7859 88.917 13.7859 91.2807C13.7986 91.9252 13.639 92.5614 13.3234 93.1235C13.0079 93.6857 12.5479 94.1533 11.991 94.478L14.2415 98.5866H10.7651L8.92545 95.1259ZM7.7956 92.5028H9.2191C10.0895 92.5028 10.5913 91.976 10.5913 91.2715C10.5913 90.567 10.0895 90.0469 9.2191 90.0469H7.7956V92.5028Z" fill="white"/>
<path d="M21.1417 98.8723C17.506 98.8723 14.9131 96.3888 14.9131 92.9334C14.9131 89.478 17.506 86.9931 21.1417 86.9931C24.7775 86.9931 27.352 89.4675 27.352 92.9334C27.352 96.3993 24.767 98.8723 21.1417 98.8723ZM21.1417 95.9753C22.8629 95.9753 24.1086 94.7045 24.1086 92.9347C24.1086 91.1649 22.8629 89.8941 21.1417 89.8941C19.4206 89.8941 18.1565 91.1741 18.1565 92.9347C18.1565 94.6953 19.4206 95.9753 21.1417 95.9753Z" fill="white"/>
<path d="M35.3018 98.5866L32.0584 93.5905V98.5866H28.9427V87.2789H32.0584V92.0458L35.0476 87.2789H38.6597L35.0384 92.7556L38.9981 98.5866H35.3018Z" fill="white"/>
<path d="M39.7593 94.2147V87.2789H42.9487V94.1541C42.9487 95.2589 43.6598 95.9726 44.7001 95.9726C45.7404 95.9726 46.4528 95.2589 46.4528 94.1541V87.2789H49.6369V94.2147C49.6369 96.9971 47.5826 98.875 44.7001 98.875C41.8175 98.875 39.7593 96.9945 39.7593 94.2147Z" fill="white"/>
<path d="M61.79 87.2789V98.5866H59.2143L54.7225 92.4501V98.5866H51.703V87.2789H54.4302L58.7757 93.2047V87.2789H61.79Z" fill="white"/>
<path d="M63.98 87.2789H67.1404V98.5866H63.98V87.2789Z" fill="white"/>
<path d="M79.4146 87.2789V98.5866H76.8376L72.3458 92.4501V98.5866H69.3276V87.2789H72.0509L76.3964 93.2047V87.2789H79.4146Z" fill="white"/>
</svg>
