<?xml version="1.0" encoding="UTF-8"?><svg id="Layer_1" xmlns="http://www.w3.org/2000/svg" viewBox="0 0 24 24"><path d="M12,6.81c-2.92,0-5.27,2.32-5.27,5.19s2.35,5.19,5.27,5.19,5.27-2.32,5.27-5.19-2.35-5.19-5.27-5.19Zm0,8.56c-1.89,0-3.43-1.51-3.43-3.37s1.54-3.37,3.43-3.37,3.43,1.51,3.43,3.37-1.54,3.37-3.43,3.37Zm6.72-8.77c0,.67-.55,1.21-1.23,1.21s-1.23-.54-1.23-1.21,.55-1.21,1.23-1.21,1.23,.54,1.23,1.21Zm3.49,1.23c-.08-1.62-.45-3.06-1.66-4.24-1.2-1.18-2.66-1.55-4.31-1.63-1.7-.09-6.79-.09-8.48,0-1.64,.08-3.1,.45-4.31,1.63-1.21,1.18-1.58,2.62-1.66,4.24-.1,1.67-.1,6.68,0,8.35,.08,1.62,.45,3.06,1.66,4.24,1.21,1.18,2.66,1.55,4.31,1.63,1.7,.09,6.79,.09,8.48,0,1.65-.08,3.11-.45,4.31-1.63,1.2-1.18,1.58-2.62,1.66-4.24,.1-1.67,.1-6.67,0-8.35Zm-2.19,10.14c-.36,.89-1.05,1.57-1.95,1.92-1.35,.53-4.56,.41-6.06,.41s-4.71,.12-6.06-.41c-.9-.35-1.59-1.03-1.95-1.92-.54-1.33-.41-4.49-.41-5.97s-.12-4.64,.41-5.97c.36-.89,1.05-1.57,1.95-1.92,1.35-.53,4.56-.41,6.06-.41s4.71-.12,6.06,.41c.9,.35,1.59,1.03,1.95,1.92,.54,1.33,.41,4.49,.41,5.97s.12,4.64-.41,5.97Z" fill="#fff"/></svg>