<?xml version="1.0" encoding="UTF-8"?><svg id="Layer_1" xmlns="http://www.w3.org/2000/svg" xmlns:xlink="http://www.w3.org/1999/xlink" viewBox="0 0 24 24"><defs><clipPath id="clippath"><rect x="1.72" y="2.37" width="20.55" height="19.27" fill="none"/></clipPath></defs><g clip-path="url(#clippath)"><path d="M6.39,21.63V8.63H1.98v13H6.39ZM4.19,6.86c1.54,0,2.49-1,2.49-2.25-.03-1.28-.96-2.25-2.46-2.25s-2.49,.97-2.49,2.25,.96,2.25,2.44,2.25h.03Zm4.64,14.78h4.41v-7.26c0-.39,.03-.78,.15-1.05,.32-.78,1.04-1.58,2.26-1.58,1.59,0,2.23,1.19,2.23,2.94v6.96h4.41v-7.45c0-3.99-2.17-5.85-5.07-5.85-2.38,0-3.42,1.3-4,2.19h.03v-1.89h-4.41c.06,1.22,0,13,0,13h0Z" fill="#fff"/></g></svg>